<!--?xml version="1.0" standalone="no"?-->
              <svg id="sw-js-blob-svg" viewBox="0 0 100 100" xmlns="http://www.w3.org/2000/svg" version="1.1">
                    <defs> 
                        <linearGradient id="sw-gradient" x1="0" x2="1" y1="1" y2="0">
                            <stop id="stop1" stop-color="rgba(67, 195, 255, 0.18)" offset="0%"></stop>
                            <stop id="stop2" stop-color="rgba(67, 195, 255, 1)" offset="100%"></stop>
                        </linearGradient>
                    </defs>
                <path fill="url(#sw-gradient)" d="M8.1,-15.5C12.4,-11.4,19.4,-13.3,24.3,-11.7C29.2,-10.1,32.2,-5.1,34.1,1.1C36,7.3,36.9,14.5,33.1,18.1C29.3,21.7,20.9,21.7,14.6,18.7C8.3,15.6,4.2,9.6,-2,13C-8.1,16.5,-16.2,29.3,-19.5,30.6C-22.7,31.8,-21.1,21.5,-18.2,14.5C-15.3,7.5,-11.1,3.7,-14.5,-2C-17.9,-7.7,-28.8,-15.3,-28.9,-17.4C-28.9,-19.4,-18,-15.9,-11.4,-18.6C-4.8,-21.3,-2.4,-30.3,-0.3,-29.8C1.8,-29.4,3.7,-19.5,8.1,-15.5Z" width="100%" height="100%" transform="translate(50 50)" stroke-width="0" style="transition: all 0.3s ease 0s;"></path>
              </svg>