<!--?xml version="1.0" standalone="no"?-->
              <svg id="sw-js-blob-svg" viewBox="0 0 100 100" xmlns="http://www.w3.org/2000/svg" version="1.1">
                    <defs> 
                        <linearGradient id="sw-gradient" x1="0" x2="1" y1="1" y2="0">
                            <stop id="stop1" stop-color="rgba(67, 195, 255, 0.18)" offset="0%"></stop>
                            <stop id="stop2" stop-color="rgba(67, 195, 255, 1)" offset="100%"></stop>
                        </linearGradient>
                    </defs>
                <path fill="url(#sw-gradient)" d="M3.6,-3.1C6.2,-2,11,-2.4,17.7,1.8C24.3,6.1,32.8,15,32.9,22.9C33,30.9,24.7,37.9,15.4,40.4C6.2,42.9,-4,40.9,-7.3,33.7C-10.6,26.6,-7.1,14.3,-10,7C-12.8,-0.4,-22,-3,-26.7,-9.7C-31.4,-16.4,-31.7,-27.2,-26.5,-27.9C-21.3,-28.6,-10.7,-19.1,-5.1,-13C0.5,-6.9,0.9,-4.3,3.6,-3.1Z" width="100%" height="100%" transform="translate(50 50)" stroke-width="0" style="transition: all 0.3s ease 0s;"></path>
              </svg>